<?xml version="1.0" encoding="UTF-8"?>
<svg id="Layer_1" xmlns="http://www.w3.org/2000/svg" viewBox="0 0 841.89 595.28">
  <defs>
    <style>
      .cls-1 {
        stroke-width: 1.09px;
      }

      .cls-1, .cls-2, .cls-3, .cls-4, .cls-5 {
        stroke-miterlimit: 10;
      }

      .cls-1, .cls-2, .cls-4, .cls-5 {
        fill: none;
      }

      .cls-1, .cls-4 {
        stroke: #6d6e71;
      }

      .cls-2 {
        stroke: #074121;
        stroke-width: 9.72px;
      }

      .cls-2, .cls-3, .cls-5 {
        stroke-linecap: round;
      }

      .cls-3 {
        fill: #084121;
        stroke: #084121;
        stroke-width: 6.44px;
      }

      .cls-4 {
        stroke-width: 1.18px;
      }

      .cls-6 {
        fill: #074121;
      }

      .cls-5 {
        stroke: #911b1e;
        stroke-width: 12.57px;
      }
    </style>
  </defs>
  <line class="cls-1" x1="465.58" y1="248.24" x2="501.68" y2="218.13"/>
  <line class="cls-1" x1="514.06" y1="236" x2="483.42" y2="253"/>
  <line class="cls-1" x1="371.48" y1="226.82" x2="350.98" y2="191.45"/>
  <line class="cls-1" x1="386.95" y1="177.85" x2="402.85" y2="259.17"/>
  <line class="cls-1" x1="410.47" y1="257.45" x2="410.47" y2="175.52"/>
  <line class="cls-1" x1="471.06" y1="192.1" x2="432.9" y2="257.85"/>
  <line class="cls-1" x1="514.06" y1="352.9" x2="490.09" y2="339.23"/>
  <line class="cls-1" x1="488.72" y1="383.99" x2="457.16" y2="347.33"/>
  <line class="cls-1" x1="423.51" y1="257.85" x2="450.39" y2="182.39"/>
  <line class="cls-1" x1="467.29" y1="398.94" x2="441.61" y2="351.73"/>
  <line class="cls-1" x1="424.73" y1="362.84" x2="434.75" y2="410.89"/>
  <line class="cls-1" x1="410.47" y1="413.37" x2="410.47" y2="350.47"/>
  <line class="cls-1" x1="371.94" y1="406.99" x2="392.48" y2="348.09"/>
  <line class="cls-4" x1="322.82" y1="368.33" x2="337.46" y2="356.15"/>
  <line class="cls-1" x1="377.35" y1="352.67" x2="350.98" y2="397.44"/>
  <line class="cls-1" x1="332.87" y1="204.33" x2="358" y2="233.07"/>
  <path class="cls-2" d="M535.64,371.07c-23.14,43.45-70.23,71.66-122.54,68.2"/>
  <path class="cls-2" d="M298.07,211.79c23.61-34.37,63.05-55.9,105.83-56.06"/>
  <path class="cls-5" d="M522.97,349.06c-19.08,40.94-60.59,69.32-108.74,69.32-44.87,0-83.98-24.65-104.54-61.14"/>
  <path class="cls-5" d="M311.34,226.97c21.49-32.26,58.21-52.36,99.86-53.51,32.24-.89,68.58,5.73,111.77,61.51"/>
  <g>
    <path class="cls-6" d="M352.06,321.18c-8.16,10.79-16.08,16.59-23.77,17.4-4.24.45-7.76-.69-10.56-3.43-2.8-2.74-4.64-6.87-5.51-12.41-4.22,6.4-8.04,11.22-11.48,14.46-3.44,3.24-7.28,5.09-11.52,5.54-5.44.58-10.06-1.31-13.87-5.66-3.8-4.35-6.12-10.45-6.96-18.29-1-9.36.14-19.25,3.4-29.65s8.83-18.94,16.7-25.61,17.85-10.64,29.94-11.93c9.04-.96,17.36-.61,24.94,1.05l.42,3.96c-5.22,7.6-9.18,17.87-11.87,30.83-2.69,12.95-3.69,22.71-2.99,29.28.34,3.2,1.26,5.61,2.74,7.24,1.49,1.62,3.39,2.31,5.71,2.06,4.16-.44,8.8-4.36,13.93-11.74l.73,6.9ZM327.7,258.33c-3.89-1.61-7.96-2.19-12.21-1.74-6.68.71-12.41,4.14-17.18,10.3-4.77,6.15-8.21,14-10.34,23.53-2.12,9.54-2.82,17.68-2.1,24.45.48,4.52,1.74,8.1,3.78,10.74s4.42,3.81,7.14,3.52c4.72-.5,9.69-5.38,14.89-14.64.12-22.84,5.45-41.56,16-56.16Z"/>
    <path class="cls-6" d="M391.73,316.9c-4.91,5.58-9.29,9.78-13.14,12.6-3.85,2.82-7.63,4.42-11.36,4.82-4.28.46-7.91-.84-10.89-3.88-2.97-3.04-4.76-7.37-5.36-12.97-.89-8.4-.15-18.68,2.24-30.84,2.39-12.15,5.66-23.47,9.8-33.95l14.65-7.27c.46-.21.81-.33,1.05-.35,1.16-.12,2.2.63,3.12,2.25.92,1.62,1.54,3.87,1.84,6.75.87,8.16-.17,16.27-3.12,24.31-2.95,8.04-7.96,16.83-15.04,26.37.12,4.2.27,7.08.43,8.64.37,3.48,1.3,6.17,2.8,8.08,1.5,1.91,3.31,2.75,5.43,2.52,2.16-.23,4.38-1.25,6.66-3.08,2.27-1.82,5.65-5.46,10.13-10.91l.74,6.9ZM366.24,295.88c4.48-6.19,7.93-12.96,10.34-20.31,2.41-7.35,3.36-13.55,2.82-18.6-.16-1.48-.51-2.65-1.04-3.51-.54-.85-1.15-1.25-1.83-1.17-1.48.16-3.24,4.07-5.28,11.75-2.04,7.67-3.71,18.29-5.02,31.84Z"/>
    <path class="cls-6" d="M436.63,312.12c-4.55,5.54-8.72,9.72-12.51,12.53s-8.12,4.48-13.01,5c-5.44.58-10.02-.69-13.73-3.82-3.71-3.13-5.87-7.53-6.47-13.21-.9-8.48,1.22-16.47,6.37-23.96s11.31-11.62,18.47-12.38c3.72-.4,6.8.25,9.25,1.93,2.45,1.68,3.84,4.08,4.17,7.21.88,8.28-7.21,15.94-24.27,22.98,2.43,7.63,7.03,11.09,13.79,10.37,2.64-.28,5.09-1.26,7.34-2.94,2.25-1.68,5.54-5.21,9.86-10.61l.73,6.9ZM404,304.36c9.94-3.97,14.49-9.84,13.67-17.6-.41-3.84-2.02-5.61-4.81-5.31-2.64.28-4.95,2.56-6.92,6.84-1.97,4.28-2.62,9.64-1.93,16.08Z"/>
    <path class="cls-6" d="M525.06,302.71c-4.48,5.42-8.38,9.53-11.68,12.35-3.3,2.82-6.63,4.41-10,4.77-2.64.28-4.83-.41-6.56-2.06-1.74-1.66-2.77-4.03-3.09-7.11-.46-4.32.04-9.92,1.49-16.79,1.46-6.87,2.1-11.03,1.95-12.47-.14-1.28-.87-1.85-2.19-1.71-.4.04-.87.23-1.39.57-.57.34-1.21.82-1.91,1.42-.7.64-1.45,1.41-2.24,2.3-.79.89-1.62,1.91-2.47,3.06-.93,1.15-1.85,2.4-2.76,3.75-1.54,2.27-2.39,4.12-2.56,5.55l-1.08,8.8-2.12,14.56-14.91,4.37,3.19-25.35c.25-1.85.49-4.54.72-8.09.23-3.54.31-5.66.24-6.34-.14-1.36-.68-1.99-1.6-1.89-.28.03-.67.21-1.16.55-.57.34-1.21.84-1.91,1.48-.81.73-1.67,1.59-2.58,2.58-.98,1.08-2.02,2.3-3.13,3.67-1.18,1.46-2.38,3.07-3.62,4.82-1.69,2.37-2.62,5.02-2.8,7.95-.28,3.51-.39,6.64-.34,9.38,0,2.75.17,5.81.49,9.18l-12.99,4.6c-.81-4.57-1.38-8.39-1.71-11.47-.78-7.32-.7-13.78.25-19.36.94-5.58,2.75-12.18,5.42-19.79l14.23-4.37c-1.91,6.8-3.26,13.32-4.05,19.55,9.43-13.67,17.01-20.81,22.73-21.42,2.08-.22,3.86.45,5.34,2.01,1.48,1.56,2.37,3.72,2.66,6.49.14,1.28.19,3.66.15,7.15,6.05-7.48,10.43-12.41,13.16-14.79,2.72-2.37,5.32-3.69,7.81-3.96,2.2-.23,4.1.45,5.69,2.07,1.59,1.61,2.53,3.78,2.82,6.5.46,4.29-.14,9.91-1.78,16.89-1.64,6.97-2.34,11.54-2.12,13.7.24,2.24,1.18,3.27,2.81,3.1,1.04-.11,2.41-.96,4.12-2.53,1.71-1.58,4.62-5.1,8.73-10.55l.74,6.9Z"/>
    <path class="cls-6" d="M589.17,295.89c-5.76,6.76-9.91,11.21-12.48,13.35-2.56,2.13-5.11,3.34-7.63,3.61-6.32.67-9.9-4.59-10.73-15.8-3.39,6.15-6.63,10.76-9.73,13.85-3.09,3.08-6.44,4.81-10.04,5.2-3.52.38-6.69-.96-9.5-4-2.81-3.04-4.47-6.96-4.98-11.76-.64-6,.4-11.9,3.12-17.7,2.72-5.79,6.49-10.65,11.29-14.56,4.81-3.91,9.19-6.08,13.15-6.5,5-.53,8.75,1.4,11.24,5.79l11.55-8.09,3.37-.36-3.42,18.15c-1.79,9.13-2.5,15.34-2.15,18.62.37,3.44,1.77,5.03,4.21,4.77,1.56-.17,3.19-1.18,4.89-3.04,1.7-1.86,4.07-4.67,7.11-8.44l.73,6.9ZM545.58,303.87c4-.43,7.41-4.24,10.23-11.44,2.82-7.2,3.92-13.68,3.3-19.45-.24-2.24-.93-3.94-2.06-5.09-1.13-1.15-2.54-1.64-4.22-1.46-4,.43-7.43,4.23-10.29,11.41-2.86,7.19-3.98,13.64-3.37,19.36.23,2.16.95,3.85,2.15,5.08s2.62,1.75,4.27,1.58Z"/>
  </g>
  <g>
    <path class="cls-6" d="M89.78,334.22c-1.03.89-2.07,1.53-3.12,1.91-1.05.38-1.87.57-2.45.57-1.63,0-3.24-.63-4.83-1.88-3.98,5.05-8.19,7.58-12.64,7.58-2.33,0-4.14-.8-5.45-2.4-1.31-1.6-1.96-3.83-1.96-6.69,0-3.15.78-7.02,2.35-11.6l2.35-6.87,9.09-1.7-4.03,12.1c-.42,1.32-.82,2.88-1.2,4.69-.38,1.81-.57,3.11-.57,3.89,0,1.21.32,2.22.96,3.04s1.41,1.22,2.33,1.22c2.14,0,4.46-1.83,6.94-5.5-1.14-2.28-1.71-4.57-1.71-6.88,0-3.2.84-6.08,2.53-8.65,1.69-2.57,3.54-3.86,5.55-3.86,1.52,0,2.28,1.17,2.28,3.52,0,4.54-1.83,9.78-5.5,15.73,1.14,1.05,2.34,1.58,3.59,1.58,1.52,0,3.35-1.22,5.5-3.66v3.86Z"/>
    <path class="cls-6" d="M106.25,334.22c-5.23,5.5-9.14,8.25-11.74,8.25-1.43,0-2.64-.73-3.62-2.2-.98-1.46-1.48-3.3-1.48-5.52,0-4.76,1.61-11.36,4.83-19.79l8.52-1.78h.4l-3.35,10.5c-1.39,4.34-2.08,7.43-2.08,9.29,0,.74.16,1.34.49,1.79.32.46.73.69,1.22.69.87,0,1.75-.32,2.63-.96.88-.64,2.28-2.02,4.18-4.14v3.86ZM105.58,300.08c0,5.37-1.98,8.05-5.94,8.05-1.92,0-3.57-.58-4.93-1.74,1.3-1.97,2.3-4.18,3.02-6.64,1.77,1.1,3.19,1.64,4.26,1.64,1.21,0,2.4-.44,3.59-1.31Z"/>
    <path class="cls-6" d="M139.18,334.22c-5.16,5.46-9.59,8.18-13.28,8.18-1.5,0-2.71-.53-3.62-1.58-.92-1.05-1.37-2.46-1.37-4.23,0-2.39.98-6.05,2.95-10.97,1.05-2.64,1.58-4.31,1.58-5.03s-.28-1.07-.84-1.07c-.31,0-.73.16-1.24.47-.47.31-1.02.75-1.64,1.31-.56.51-1.19,1.14-1.88,1.88-.6.63-1.25,1.34-1.95,2.15l-1.88,2.18c-.83,1.01-1.34,2.07-1.54,3.19-.34,1.9-.56,3.64-.67,5.23-.07,1.19-.1,2.78-.1,4.8l-7.41,1.74c-.25-3.02-.37-5.27-.37-6.74,0-3.6.42-7.01,1.26-10.23s2.19-6.84,4.04-10.87l8.18-1.58c-1.72,4.63-2.85,8.27-3.39,10.93,3.66-4.09,6.57-6.93,8.73-8.5,2.15-1.58,4.07-2.36,5.74-2.36,1.14,0,2.09.43,2.85,1.29.76.86,1.14,1.94,1.14,3.23,0,2.14-.96,5.67-2.88,10.59-1.32,3.38-1.98,5.57-1.98,6.58,0,1.35.55,2.02,1.65,2.02,1.63,0,4.28-2.16,7.93-6.47v3.86Z"/>
    <path class="cls-6" d="M158.47,334.22c-2.82,2.79-5.25,4.86-7.31,6.19-2.06,1.33-4.01,2-5.87,2s-3.48-.81-4.68-2.43c-1.2-1.62-1.79-3.75-1.79-6.39,0-2.33.57-5.39,1.72-9.21l1.42-5.08-2.57.13,1.07-5.26,3.19-.13,3.15-10.46,8.96-1.84-3.47,11.67,4.74-.27-1.11,5.17-5.2.4-2.23,7.51c-.78,2.61-1.16,4.69-1.16,6.23,0,1.05.26,1.91.79,2.57.53.66,1.2.99,2.03.99,1.14,0,2.27-.36,3.39-1.09s2.77-2.24,4.94-4.54v3.86Z"/>
    <path class="cls-6" d="M194.25,334.22c-3.58,3.4-6.14,5.61-7.68,6.64s-3.02,1.54-4.43,1.54c-3.53,0-5.2-3.12-5-9.36-2.24,3.2-4.3,5.56-6.19,7.08-1.89,1.52-3.84,2.28-5.85,2.28s-3.64-.92-5.01-2.77c-1.38-1.84-2.06-4.11-2.06-6.79,0-3.35.92-6.55,2.77-9.59,1.84-3.04,4.21-5.5,7.09-7.38s5.43-2.82,7.65-2.82c2.79,0,4.75,1.29,5.87,3.86l6.85-3.79h1.88l-2.96,9.83c-1.52,4.94-2.29,8.33-2.29,10.16,0,1.92.68,2.88,2.04,2.88.87,0,1.83-.46,2.88-1.39,1.05-.93,2.53-2.34,4.42-4.24v3.86ZM169.7,336.07c2.24,0,4.34-1.91,6.32-5.72,1.98-3.81,2.97-7.33,2.97-10.55,0-1.25-.28-2.23-.84-2.93s-1.31-1.06-2.25-1.06c-2.24,0-4.36,1.9-6.36,5.7-2,3.8-3,7.3-3,10.5,0,1.21.3,2.19.89,2.93s1.35,1.12,2.26,1.12Z"/>
    <path class="cls-6" d="M227.15,334.22c-2.84,2.97-6.23,5.16-10.19,6.57-1.86,5.79-4.21,10.25-7.06,13.38-2.85,3.13-5.88,4.7-9.07,4.7-1.74,0-3.15-.55-4.23-1.64-1.07-1.1-1.61-2.54-1.61-4.33,0-2.39,1.07-4.54,3.2-6.44,2.13-1.9,5.76-3.73,10.88-5.5l1.44-6.61c-2.15,2.42-4,4.19-5.57,5.32-1.57,1.13-3.14,1.69-4.73,1.69-1.86,0-3.38-.87-4.56-2.62-1.19-1.74-1.78-4.01-1.78-6.81,0-4.56,1.74-8.84,5.21-12.83,3.47-3.99,7.17-5.99,11.08-5.99,2.17,0,4.09.92,5.77,2.75,1.01-.36,2.31-.89,3.92-1.61l2.38-1.07h.77c-.87,2.64-1.54,5.21-2.01,7.71l-3.14,16.8c3.02-1.14,6.11-3.59,9.29-7.34v3.86ZM208.37,343.92c-7.22,2.59-10.83,5.59-10.83,8.99,0,1.01.3,1.83.9,2.46.61.64,1.38.96,2.31.96,1.61,0,3.01-1.02,4.19-3.05,1.18-2.03,2.32-5.15,3.42-9.36ZM205.55,335.33c1.59,0,2.99-.94,4.22-2.82s2.19-4.26,2.87-7.14c.68-2.88,1.02-4.88,1.02-6,0-1.05-.26-1.92-.79-2.6-.53-.68-1.18-1.02-1.96-1.02-2.37,0-4.44,1.6-6.21,4.8s-2.65,6.45-2.65,9.76c0,1.54.32,2.77.96,3.67s1.48,1.36,2.53,1.36Z"/>
    <path class="cls-6" d="M252.2,334.22c-2.84,2.79-5.39,4.86-7.65,6.19-2.26,1.33-4.75,2-7.48,2-3.04,0-5.5-.97-7.36-2.92-1.87-1.95-2.8-4.5-2.8-7.68,0-4.74,1.64-9.03,4.93-12.86,3.29-3.83,6.93-5.75,10.93-5.75,2.08,0,3.74.54,5,1.61s1.88,2.48,1.88,4.23c0,4.63-4.92,8.38-14.76,11.27.89,4.36,3.23,6.54,7.01,6.54,1.48,0,2.88-.4,4.23-1.19,1.34-.79,3.36-2.55,6.07-5.28v3.86ZM234.63,328.02c5.72-1.61,8.59-4.58,8.59-8.92,0-2.15-.78-3.22-2.35-3.22-1.48,0-2.88,1.12-4.23,3.37-1.34,2.25-2.01,5.17-2.01,8.77Z"/>
  </g>
  <line class="cls-3" x1="25.14" y1="364.61" x2="285.99" y2="364.61"/>
  <line class="cls-3" x1="61.52" y1="281.41" x2="253.29" y2="281.41"/>
  <g>
    <path class="cls-6" d="M650.96,338.45c-1.54,1.65-3.42,2.48-5.63,2.48-1.74,0-3.6-.83-5.57-2.48-2.39,2.75-4.51,4.78-6.36,6.1-1.85,1.32-3.85,1.98-6.02,1.98-1.95,0-3.58-.8-4.9-2.42-1.32-1.61-1.98-3.61-1.98-6,0-4.67,1.36-10.97,4.09-18.9,2.73-7.93,5.4-13.92,8.01-17.99,2.95-.94,5.55-1.7,7.8-2.28,2.25-.58,3.54-.87,3.88-.87.65,0,1.21.43,1.69,1.29.48.86.72,1.89.72,3.1,0,2.5-1.04,5.44-3.12,8.8-2.08,3.36-4.78,6.7-8.1,10.01l-4.4,4.39c-1.38,4.88-2.06,8.47-2.06,10.77,0,1.28.29,2.29.87,3.05s1.34,1.14,2.28,1.14c1.1,0,2.09-.35,2.97-1.04.88-.69,1.88-1.77,2.97-3.22-1.12-1.92-1.68-3.89-1.68-5.9,0-3.24.88-6.24,2.63-8.99,1.75-2.75,3.63-4.12,5.62-4.12.78,0,1.42.35,1.93,1.04s.75,1.61.75,2.75c0,3.67-2.06,8.67-6.17,15.02,1.23,1.52,2.63,2.28,4.19,2.28.98,0,1.83-.23,2.55-.69s1.72-1.51,3.02-3.17v3.86ZM632.78,320.48c3.61-3.55,6.36-6.83,8.23-9.83,1.87-3,2.81-5.27,2.81-6.81,0-.62-.14-1.14-.42-1.54-.28-.4-.62-.6-1.03-.6-2.62,0-5.82,6.26-9.59,18.79Z"/>
    <path class="cls-6" d="M667.43,338.45c-5.23,5.5-9.14,8.25-11.74,8.25-1.43,0-2.64-.73-3.62-2.2s-1.47-3.3-1.47-5.52c0-4.76,1.61-11.36,4.83-19.79l8.52-1.78h.4l-3.35,10.5c-1.39,4.34-2.08,7.43-2.08,9.29,0,.74.16,1.34.49,1.79.32.46.73.69,1.22.69.87,0,1.75-.32,2.63-.96.88-.64,2.27-2.02,4.17-4.14v3.86ZM666.76,304.31c0,5.37-1.98,8.05-5.94,8.05-1.92,0-3.57-.58-4.93-1.74,1.29-1.97,2.3-4.18,3.02-6.64,1.77,1.1,3.19,1.64,4.26,1.64,1.21,0,2.4-.44,3.59-1.31Z"/>
    <path class="cls-6" d="M700.36,338.38c-5.08,5.54-9.29,8.32-12.64,8.32-1.61,0-2.96-.57-4.06-1.69-1.1-1.13-1.64-2.52-1.64-4.17,0-.78.13-1.96.4-3.52.27-1.56.4-2.45.4-2.65,0-1.03-.58-1.56-1.74-1.59s-1.74-.49-1.74-1.36c0-.76.16-1.29.49-1.59s.93-.45,1.83-.45c2.46-.07,4.29-.58,5.5-1.53s1.81-2.07,1.81-3.37c0-.92-.33-1.67-.99-2.26-.66-.59-1.5-.89-2.53-.89-.56,0-1.1.07-1.61.2-.54.13-1.05.33-1.54.6-.51.29-1.05.66-1.61,1.11-.54.47-1.11,1.04-1.71,1.71-.58.65-1.22,1.42-1.91,2.31-.36.47-.8,2.67-1.34,6.61-.27,2.04-.45,3.91-.54,5.63-.09,1.61-.1,3.43-.03,5.47l-7.61,1.27c-.29-1.7-.44-3.78-.44-6.24,0-6.71.9-13.11,2.72-19.22,1.81-6.1,4.77-12.38,8.89-18.81,3.2-1.3,5.96-2.31,8.28-3.04,2.32-.73,3.62-1.09,3.89-1.09.54,0,1.06.54,1.58,1.61.51,1.07.77,2.2.77,3.39,0,1.99-.66,4.16-1.98,6.52-1.32,2.36-3.37,5.2-6.14,8.54,1.9-.56,3.48-.84,4.73-.84,2.08,0,3.78.53,5.1,1.59,1.32,1.06,1.98,2.41,1.98,4.04,0,3.71-3.34,6.44-10.03,8.18,2.62.6,3.92,2.13,3.92,4.59l-.2,3.02c0,1.36.64,2.05,1.91,2.05.89,0,1.91-.44,3.05-1.31,1.14-.87,2.74-2.54,4.79-5v3.86ZM678.36,322.22l2.21-2.45c6.55-7.38,9.83-12.58,9.83-15.59,0-1.39-.6-2.08-1.81-2.08-1.39,0-2.98,1.63-4.78,4.9-1.8,3.26-3.62,8.34-5.45,15.23Z"/>
    <path class="cls-6" d="M725.41,338.45c-2.84,2.79-5.39,4.86-7.65,6.19-2.26,1.33-4.75,2-7.48,2-3.04,0-5.49-.97-7.36-2.92s-2.8-4.5-2.8-7.68c0-4.74,1.64-9.03,4.93-12.86,3.29-3.83,6.93-5.75,10.93-5.75,2.08,0,3.74.54,5,1.61,1.25,1.07,1.88,2.48,1.88,4.23,0,4.63-4.92,8.38-14.76,11.27.89,4.36,3.23,6.54,7.01,6.54,1.47,0,2.88-.4,4.22-1.19,1.34-.79,3.37-2.55,6.07-5.28v3.86ZM707.84,332.25c5.72-1.61,8.58-4.58,8.58-8.92,0-2.15-.78-3.22-2.35-3.22-1.47,0-2.88,1.12-4.22,3.37-1.34,2.25-2.01,5.17-2.01,8.77Z"/>
    <path class="cls-6" d="M735.74,318.8c1.54-.4,3.1-.73,4.66-.99s2.5-.39,2.82-.39c.22,0,.33.09.33.27,0,.33-.09.68-.27,1.04-.36,1.03-.54,2.01-.54,2.95,0,1.16.68,2.75,2.02,4.76,1.34,2.01,2.01,3.88,2.01,5.6,0,3.42-1.64,6.72-4.91,9.89-3.28,3.17-6.67,4.76-10.18,4.76-1.52,0-2.91-.4-4.16-1.21s-1.88-1.67-1.88-2.58c0-.54.62-1.55,1.86-3.05s2.13-2.25,2.67-2.25c.71,0,1.35.92,1.91,2.75.56,1.83,1.52,2.75,2.88,2.75s2.64-.63,3.84-1.89c1.2-1.26,1.79-2.62,1.79-4.08,0-1.41-.76-3.29-2.28-5.63-1.52-2.35-2.53-4.31-3.02-5.9-2.59,4.18-5.88,8.46-9.86,12.84h-.77v-3.02c5.48-5.83,9.17-11.38,11.07-16.63Z"/>
  </g>
  <line class="cls-3" x1="555.9" y1="366.28" x2="816.75" y2="366.28"/>
  <line class="cls-3" x1="604.41" y1="281.09" x2="796.18" y2="281.09"/>
</svg>