<?xml version="1.0" encoding="UTF-8"?>
<svg id="Layer_1" xmlns="http://www.w3.org/2000/svg" viewBox="0 0 841.89 595.28">
  <defs>
    <style>
      .cls-1 {
        stroke-width: .93px;
      }

      .cls-1, .cls-2, .cls-3, .cls-4, .cls-5, .cls-6, .cls-7, .cls-8 {
        stroke-miterlimit: 10;
      }

      .cls-1, .cls-5, .cls-6, .cls-7 {
        fill: none;
      }

      .cls-1, .cls-6 {
        stroke: #6d6e71;
      }

      .cls-2, .cls-3, .cls-5, .cls-8 {
        stroke: #074121;
      }

      .cls-2, .cls-6 {
        stroke-width: 1.24px;
      }

      .cls-2, .cls-9 {
        fill: #074121;
      }

      .cls-3 {
        font-size: 82.35px;
      }

      .cls-3, .cls-4, .cls-8 {
        fill: #084121;
      }

      .cls-3, .cls-8 {
        font-family: EngraversMT, 'Engravers MT';
        stroke-width: 2.72px;
      }

      .cls-4 {
        stroke: #084121;
        stroke-linecap: round;
        stroke-width: 5.48px;
      }

      .cls-5 {
        stroke-width: 11.06px;
      }

      .cls-7 {
        stroke: #911b1e;
        stroke-width: 10.27px;
      }

      .cls-8 {
        font-size: 81.7px;
      }
    </style>
  </defs>
  <g>
    <path class="cls-9" d="M90.88,313.01c-.88.76-1.76,1.3-2.66,1.63-.89.32-1.59.49-2.08.49-1.39,0-2.76-.53-4.11-1.6-3.39,4.3-6.98,6.45-10.76,6.45-1.98,0-3.53-.68-4.64-2.04-1.11-1.36-1.67-3.26-1.67-5.7,0-2.68.67-5.98,2-9.88l2-5.85,7.73-1.45-3.43,10.3c-.36,1.12-.7,2.46-1.02,4-.32,1.54-.48,2.65-.48,3.31,0,1.03.27,1.89.81,2.58.54.7,1.2,1.04,1.98,1.04,1.83,0,3.8-1.56,5.91-4.68-.97-1.94-1.46-3.89-1.46-5.85,0-2.72.72-5.18,2.16-7.37,1.44-2.19,3.01-3.28,4.72-3.28,1.29,0,1.94,1,1.94,3,0,3.86-1.56,8.33-4.68,13.39.97.89,1.99,1.34,3.05,1.34,1.29,0,2.85-1.04,4.68-3.11v3.28Z"/>
    <path class="cls-9" d="M104.9,313.01c-4.45,4.68-7.78,7.02-9.99,7.02-1.22,0-2.25-.62-3.08-1.87-.84-1.25-1.26-2.81-1.26-4.7,0-4.05,1.37-9.67,4.11-16.84l7.25-1.51h.34l-2.86,8.94c-1.18,3.69-1.77,6.33-1.77,7.91,0,.63.14,1.14.41,1.53.28.39.62.58,1.04.58.74,0,1.49-.27,2.24-.81.75-.54,1.94-1.72,3.55-3.53v3.28ZM104.33,283.94c0,4.57-1.68,6.85-5.05,6.85-1.64,0-3.04-.49-4.2-1.48,1.1-1.67,1.96-3.56,2.57-5.65,1.5.93,2.71,1.4,3.63,1.4,1.03,0,2.04-.37,3.05-1.11Z"/>
    <path class="cls-9" d="M132.93,313.01c-4.4,4.64-8.17,6.97-11.31,6.97-1.28,0-2.3-.45-3.08-1.34-.78-.89-1.17-2.09-1.17-3.6,0-2.04.84-5.15,2.51-9.34.89-2.25,1.34-3.67,1.34-4.28s-.24-.91-.71-.91c-.27,0-.62.13-1.06.4-.4.27-.87.64-1.4,1.11-.48.44-1.01.97-1.6,1.6-.51.53-1.07,1.14-1.66,1.83l-1.6,1.86c-.7.86-1.14,1.76-1.31,2.71-.29,1.62-.48,3.1-.57,4.45-.06,1.01-.09,2.37-.09,4.08l-6.31,1.48c-.21-2.57-.31-4.48-.31-5.74,0-3.06.36-5.97,1.07-8.71.71-2.74,1.86-5.82,3.44-9.25l6.97-1.34c-1.47,3.94-2.43,7.04-2.88,9.31,3.12-3.48,5.6-5.9,7.43-7.24,1.83-1.34,3.46-2.01,4.89-2.01.97,0,1.78.37,2.42,1.1.65.73.97,1.65.97,2.75,0,1.82-.82,4.83-2.45,9.02-1.12,2.87-1.68,4.74-1.68,5.6,0,1.15.47,1.72,1.4,1.72,1.39,0,3.64-1.84,6.75-5.51v3.28Z"/>
    <path class="cls-9" d="M149.35,313.01c-2.4,2.38-4.47,4.14-6.22,5.27s-3.42,1.7-5,1.7-2.96-.69-3.98-2.07c-1.02-1.38-1.53-3.19-1.53-5.44,0-1.98.49-4.59,1.46-7.84l1.21-4.32-2.19.11.91-4.48,2.71-.11,2.68-8.91,7.63-1.57-2.95,9.93,4.03-.23-.94,4.4-4.43.34-1.9,6.4c-.66,2.22-.99,3.99-.99,5.31,0,.89.22,1.62.67,2.19.45.56,1.02.84,1.73.84.97,0,1.93-.31,2.89-.93s2.35-1.91,4.2-3.87v3.28Z"/>
    <path class="cls-9" d="M179.81,313.01c-3.04,2.89-5.22,4.78-6.54,5.65-1.31.88-2.57,1.31-3.77,1.31-3.01,0-4.43-2.65-4.25-7.96-1.9,2.72-3.66,4.73-5.27,6.02-1.61,1.29-3.27,1.94-4.98,1.94s-3.1-.79-4.27-2.35c-1.17-1.57-1.76-3.5-1.76-5.78,0-2.86.79-5.58,2.36-8.17,1.57-2.59,3.58-4.68,6.04-6.28s4.62-2.4,6.51-2.4c2.38,0,4.04,1.09,5,3.28l5.84-3.23h1.6l-2.52,8.37c-1.3,4.21-1.95,7.09-1.95,8.65s.58,2.45,1.74,2.45c.74,0,1.56-.4,2.45-1.19.89-.79,2.15-1.99,3.77-3.61v3.28ZM158.91,314.58c1.9,0,3.7-1.62,5.38-4.87,1.68-3.25,2.53-6.24,2.53-8.98,0-1.07-.24-1.9-.71-2.5-.48-.6-1.11-.9-1.91-.9-1.9,0-3.71,1.62-5.41,4.85-1.7,3.24-2.55,6.21-2.55,8.94,0,1.03.25,1.86.76,2.5.5.64,1.15.96,1.93.96Z"/>
    <path class="cls-9" d="M207.82,313.01c-2.42,2.53-5.31,4.4-8.67,5.59-1.58,4.93-3.58,8.73-6.01,11.39s-5,4-7.72,4c-1.49,0-2.69-.47-3.6-1.4-.91-.93-1.37-2.16-1.37-3.68,0-2.04.91-3.86,2.73-5.48,1.82-1.62,4.91-3.18,9.26-4.68l1.23-5.62c-1.83,2.06-3.41,3.56-4.74,4.53s-2.67,1.44-4.03,1.44c-1.58,0-2.87-.74-3.88-2.23s-1.51-3.42-1.51-5.8c0-3.88,1.48-7.52,4.44-10.92,2.96-3.4,6.1-5.1,9.43-5.1,1.85,0,3.48.78,4.91,2.34.86-.3,1.97-.76,3.34-1.37l2.03-.91h.66c-.74,2.25-1.31,4.44-1.71,6.57l-2.68,14.3c2.57-.97,5.2-3.05,7.91-6.25v3.28ZM191.83,321.26c-6.15,2.21-9.22,4.76-9.22,7.65,0,.86.26,1.56.77,2.1.51.54,1.17.81,1.97.81,1.37,0,2.56-.87,3.57-2.6,1.01-1.73,1.98-4.39,2.91-7.96ZM189.43,313.95c1.35,0,2.55-.8,3.6-2.4,1.05-1.6,1.86-3.62,2.44-6.08.58-2.46.87-4.16.87-5.11,0-.89-.22-1.63-.67-2.21-.45-.58-1-.87-1.67-.87-2.02,0-3.78,1.36-5.28,4.08-1.5,2.72-2.25,5.49-2.25,8.31,0,1.31.27,2.36.81,3.13s1.26,1.16,2.16,1.16Z"/>
    <path class="cls-9" d="M229.14,313.01c-2.42,2.38-4.59,4.14-6.51,5.27-1.92,1.13-4.04,1.7-6.37,1.7-2.59,0-4.68-.83-6.27-2.48-1.59-1.66-2.38-3.83-2.38-6.54,0-4.03,1.4-7.68,4.2-10.95,2.8-3.26,5.9-4.9,9.31-4.9,1.77,0,3.19.46,4.25,1.37s1.6,2.11,1.6,3.6c0,3.94-4.19,7.14-12.56,9.59.76,3.71,2.75,5.57,5.97,5.57,1.26,0,2.46-.34,3.6-1.01,1.14-.68,2.86-2.17,5.17-4.5v3.28ZM214.18,307.73c4.87-1.37,7.31-3.9,7.31-7.59,0-1.83-.67-2.74-2-2.74-1.26,0-2.46.96-3.6,2.87-1.14,1.91-1.71,4.4-1.71,7.47Z"/>
  </g>
  <line class="cls-4" x1="35.85" y1="338.88" x2="257.91" y2="338.88"/>
  <line class="cls-4" x1="66.82" y1="268.04" x2="230.07" y2="268.04"/>
  <g>
    <path class="cls-9" d="M664.91,316.03c-1.31,1.41-2.91,2.11-4.8,2.11-1.48,0-3.06-.7-4.74-2.11-2.04,2.34-3.84,4.07-5.41,5.2s-3.28,1.68-5.12,1.68c-1.66,0-3.05-.69-4.17-2.06-1.12-1.37-1.68-3.07-1.68-5.11,0-3.98,1.16-9.34,3.48-16.09,2.32-6.75,4.6-11.85,6.82-15.32,2.51-.8,4.72-1.45,6.64-1.94s3.01-.74,3.3-.74c.55,0,1.03.37,1.44,1.1.41.73.61,1.61.61,2.64,0,2.13-.89,4.63-2.66,7.49-1.77,2.86-4.07,5.7-6.89,8.52l-3.75,3.74c-1.17,4.15-1.76,7.21-1.76,9.17,0,1.09.25,1.95.74,2.6.5.65,1.14.97,1.94.97.93,0,1.78-.29,2.53-.89.75-.59,1.6-1.5,2.53-2.74-.95-1.64-1.43-3.31-1.43-5.02,0-2.76.75-5.31,2.24-7.65s3.09-3.51,4.78-3.51c.67,0,1.21.29,1.64.88.43.59.64,1.37.64,2.34,0,3.12-1.75,7.38-5.25,12.79,1.05,1.29,2.24,1.94,3.57,1.94.84,0,1.56-.19,2.17-.58.61-.39,1.47-1.29,2.57-2.7v3.28ZM649.43,300.73c3.08-3.02,5.41-5.81,7-8.37s2.39-4.49,2.39-5.8c0-.53-.12-.97-.36-1.31-.24-.34-.53-.51-.87-.51-2.23,0-4.96,5.33-8.17,15.99Z"/>
    <path class="cls-9" d="M678.92,316.03c-4.45,4.68-7.78,7.02-9.99,7.02-1.22,0-2.25-.62-3.08-1.87-.84-1.25-1.26-2.81-1.26-4.7,0-4.05,1.37-9.67,4.11-16.84l7.25-1.51h.34l-2.86,8.94c-1.18,3.69-1.77,6.33-1.77,7.91,0,.63.14,1.14.41,1.53.28.39.62.58,1.04.58.74,0,1.49-.27,2.24-.81.75-.54,1.94-1.72,3.55-3.53v3.28ZM678.35,286.97c0,4.57-1.68,6.85-5.05,6.85-1.64,0-3.04-.49-4.2-1.48,1.1-1.67,1.96-3.56,2.57-5.65,1.5.93,2.71,1.4,3.63,1.4,1.03,0,2.04-.37,3.05-1.11Z"/>
    <path class="cls-9" d="M706.96,315.97c-4.32,4.72-7.91,7.08-10.76,7.08-1.37,0-2.52-.48-3.46-1.44-.93-.96-1.4-2.15-1.4-3.55,0-.67.11-1.67.34-3,.23-1.33.34-2.08.34-2.25,0-.88-.5-1.33-1.49-1.36s-1.48-.41-1.48-1.16c0-.65.14-1.1.41-1.36.28-.26.79-.39,1.56-.39,2.09-.06,3.65-.49,4.68-1.3,1.03-.81,1.54-1.77,1.54-2.87,0-.78-.28-1.42-.84-1.93-.56-.5-1.28-.76-2.16-.76-.48,0-.93.06-1.37.17-.46.11-.9.29-1.31.51-.44.25-.9.56-1.37.94-.46.4-.94.88-1.46,1.46-.5.55-1.04,1.21-1.63,1.97-.3.4-.68,2.27-1.14,5.62-.23,1.73-.38,3.33-.46,4.8-.08,1.37-.09,2.92-.03,4.65l-6.48,1.08c-.25-1.45-.37-3.22-.37-5.31,0-5.71.77-11.16,2.31-16.36,1.54-5.2,4.06-10.53,7.57-16.02,2.72-1.1,5.07-1.96,7.05-2.58,1.98-.62,3.08-.93,3.31-.93.46,0,.9.46,1.34,1.37.44.91.66,1.88.66,2.88,0,1.69-.56,3.54-1.68,5.55s-2.86,4.43-5.22,7.27c1.62-.48,2.96-.71,4.03-.71,1.77,0,3.22.45,4.34,1.36,1.12.9,1.68,2.05,1.68,3.44,0,3.16-2.85,5.48-8.54,6.97,2.23.51,3.34,1.82,3.34,3.91l-.17,2.57c0,1.16.54,1.74,1.63,1.74.76,0,1.63-.37,2.6-1.11s2.33-2.16,4.08-4.25v3.28ZM688.23,302.21l1.88-2.08c5.58-6.28,8.36-10.71,8.36-13.28,0-1.18-.51-1.77-1.54-1.77-1.18,0-2.54,1.39-4.07,4.17-1.53,2.78-3.08,7.1-4.64,12.96Z"/>
    <path class="cls-9" d="M728.28,316.03c-2.42,2.38-4.59,4.14-6.51,5.27-1.92,1.13-4.04,1.7-6.37,1.7-2.59,0-4.68-.83-6.27-2.48-1.59-1.66-2.38-3.83-2.38-6.54,0-4.03,1.4-7.68,4.2-10.95,2.8-3.26,5.9-4.9,9.31-4.9,1.77,0,3.19.46,4.25,1.37,1.07.91,1.6,2.11,1.6,3.6,0,3.94-4.19,7.14-12.56,9.59.76,3.71,2.75,5.57,5.97,5.57,1.26,0,2.46-.34,3.6-1.01,1.14-.68,2.86-2.17,5.17-4.5v3.28ZM713.32,310.75c4.87-1.37,7.31-3.9,7.31-7.59,0-1.83-.67-2.74-2-2.74-1.26,0-2.46.96-3.6,2.87-1.14,1.91-1.71,4.4-1.71,7.47Z"/>
    <path class="cls-9" d="M737.08,299.3c1.31-.34,2.64-.62,3.97-.84,1.33-.22,2.13-.33,2.4-.33.19,0,.29.08.29.23,0,.29-.08.58-.23.88-.3.88-.46,1.71-.46,2.51,0,.99.58,2.34,1.71,4.05,1.14,1.71,1.71,3.3,1.71,4.77,0,2.91-1.39,5.72-4.18,8.42-2.79,2.7-5.68,4.05-8.66,4.05-1.29,0-2.47-.34-3.54-1.03-1.07-.68-1.6-1.42-1.6-2.2,0-.46.53-1.32,1.58-2.6,1.06-1.27,1.81-1.91,2.27-1.91.61,0,1.15.78,1.63,2.34.48,1.56,1.29,2.34,2.46,2.34s2.25-.54,3.27-1.61c1.02-1.08,1.53-2.23,1.53-3.47,0-1.2-.65-2.8-1.94-4.8-1.29-2-2.15-3.67-2.57-5.02-2.21,3.56-5.01,7.2-8.39,10.93h-.66v-2.57c4.66-4.97,7.8-9.69,9.42-14.16Z"/>
  </g>
  <line class="cls-4" x1="583.98" y1="339.72" x2="806.04" y2="339.72"/>
  <line class="cls-4" x1="625.27" y1="267.2" x2="788.53" y2="267.2"/>
  <g>
    <polyline class="cls-6" points="389.82 165.51 415.24 295.51 348.89 180.99"/>
    <polyline class="cls-6" points="485.53 181.73 416.58 300.5 416.58 162.86"/>
    <polyline class="cls-6" points="534.46 231.68 419.48 295.51 520.37 211.35"/>
    <polyline class="cls-6" points="551.91 298.19 417.91 298.21 551.91 272.22"/>
    <polyline class="cls-6" points="534.46 364.72 417.91 298.21 544.56 342.28"/>
    <line class="cls-6" x1="505.63" y1="400.09" x2="417.91" y2="298.21"/>
    <polyline class="cls-6" points="481.24 417.11 416.58 298.21 462.01 170.68"/>
    <polyline class="cls-6" points="416.58 433.52 416.58 298.21 444.21 430.7"/>
    <line class="cls-6" x1="372.74" y1="426.26" x2="416.58" y2="300.5"/>
    <line class="cls-6" x1="313.87" y1="386.31" x2="417.91" y2="298.21"/>
    <polyline class="cls-6" points="298.71 364.72 419.48 295.51 348.89 415.4"/>
    <polyline class="cls-6" points="281.25 298.19 423.25 297.18 283.71 323.95"/>
    <line class="cls-6" x1="286.15" y1="253.43" x2="423.25" y2="301.25"/>
    <polyline class="cls-6" points="328.27 195.65 416.58 296.62 299.37 230.51"/>
    <circle class="cls-2" cx="416.58" cy="298.21" r="14.36"/>
    <circle class="cls-1" cx="416.58" cy="298.21" r="10.73"/>
    <text class="cls-3" transform="translate(262.63 201.64) rotate(-41.13)"><tspan x="0" y="0">A</tspan></text>
    <text class="cls-8" transform="translate(313.67 156.63) rotate(-21.69)"><tspan x="0" y="0">L</tspan></text>
    <text class="cls-8" transform="translate(372.36 132.62) rotate(-2.74)"><tspan x="0" y="0">E</tspan></text>
    <text class="cls-8" transform="translate(435.61 126.52) rotate(19.37)"><tspan x="0" y="0">M</tspan></text>
    <text class="cls-8" transform="translate(516.78 156.12) rotate(42.26)"><tspan x="0" y="0">A</tspan></text>
    <circle class="cls-5" cx="415.24" cy="298.19" r="146.91"/>
    <circle class="cls-7" cx="415.24" cy="298.19" r="136.44"/>
  </g>
</svg>